<svg xmlns="http://www.w3.org/2000/svg" width="247" height="96" fill="none">
  <path fill="#fff" fill-rule="evenodd" d="M242.78 0a4.229 4.229 0 0 1 0 8.45h-17.93L210.59 94h-13.05l-16.26-68.6L164.51 94h-13.95L136.3 8.45H109V0h133.78ZM0 91.6c0-2.4 1.95-4.36 4.36-4.36h19.16V1.84h22.91c9.56 0 16.56 2 21 6.02 4.52 4 6.78 9.55 6.78 16.64 0 2.39-.39 4.69-1.15 6.9a19.4 19.4 0 0 1-3.08 5.9 20.793 20.793 0 0 1-4.73 4.73 18.762 18.762 0 0 1-5.89 2.82c2.3.34 4.6 1.02 6.91 2.05a19.229 19.229 0 0 1 6.15 4.35 20.199 20.199 0 0 1 4.35 6.78 26.38 26.38 0 0 1 1.66 9.86c0 4.7-.9 8.7-2.69 12.03a23.182 23.182 0 0 1-5.8 7.32H109c1.48-.1 2.96-.34 4.44-.71 2.05-.6 3.89-1.54 5.5-2.82a13.636 13.636 0 0 0 4.1-5.12 17.936 17.936 0 0 0 1.54-7.8c0-3.25-.43-5.94-1.28-8.07a13.85 13.85 0 0 0-3.84-5.63 24.497 24.497 0 0 0-6.78-4.35 321.38 321.38 0 0 0-10.12-4.36c-6.9-2.81-12.03-6.23-15.36-10.24-3.24-4-4.86-8.96-4.86-14.84 0-3.25.6-6.28 1.8-9.1a19.95 19.95 0 0 1 5.24-7.42c2.3-2.13 5.08-3.8 8.32-4.99A33.52 33.52 0 0 1 109 0v8.45c-4.62.06-8.43 1.2-11.43 3.45-3.07 2.22-4.6 5.76-4.6 10.63-.032 2 .268 3.99.89 5.89.6 1.7 1.58 3.24 2.94 4.6a28.143 28.143 0 0 0 5.64 3.97 78.625 78.625 0 0 0 8.57 3.71 96.186 96.186 0 0 1 9.47 4.23 30.98 30.98 0 0 1 7.81 5.63 23.096 23.096 0 0 1 5.38 8.06c1.36 3.16 2.05 7 2.05 11.52 0 3.5-.73 6.83-2.18 9.99a24.678 24.678 0 0 1-5.89 8.32 27.83 27.83 0 0 1-8.96 5.5 30.66 30.66 0 0 1-9.69 2v.01H4.36A4.36 4.36 0 0 1 0 91.6Zm34.4-42.53v36.61h12.8c2.56 0 5-.3 7.3-.9 2.39-.6 4.52-1.57 6.4-2.94a15.739 15.739 0 0 0 4.48-5.5c1.1-2.3 1.66-5.12 1.66-8.45 0-6.15-1.7-10.8-5.12-13.95-3.41-3.25-8.5-4.87-15.23-4.87H34.4Zm0-39.68v31.87h11.78c5.88 0 10.2-1.45 12.92-4.35 2.82-2.9 4.23-6.91 4.23-12.03 0-5.46-1.58-9.39-4.74-11.78-3.07-2.47-7.2-3.7-12.41-3.7H34.4v-.01Zm180.58-.94-11.04 73.9-15.24-73.9h-13.95L158.5 82.6 147.33 8.45h67.65Z" clip-rule="evenodd"/>
</svg>
