<svg width="1920" height="192" viewBox="0 0 1920 192" preserveAspectRatio="none" fill="none" xmlns="http://www.w3.org/2000/svg">
<path opacity="0.5" d="M0 192V4.29153e-06C320.064 4.29153e-06 320.064 126.72 639.936 126.72C959.808 126.72 960 44.16 1280.06 44.16C1600.13 44.16 1599.94 138.24 1920 138.24V192H0Z" fill="#0077B6"/>
<path opacity="0.5" d="M0 192V4.29153e-06C320.064 4.29153e-06 320.064 126.72 639.936 126.72C959.808 126.72 960 57.6 1280.06 57.6C1600.13 57.6 1599.94 161.28 1920 161.28V192H0Z" fill="#0077B6"/>
<path d="M0 192V4.29153e-06C320.064 4.29153e-06 320.064 126.72 639.936 126.72C959.808 126.72 960 71.04 1280.06 71.04C1600.13 71.04 1599.94 184.32 1920 184.32V192H0Z" fill="#0077B6"/>
</svg>
