<svg width="1920" height="120" viewBox="0 0 1920 120" preserveAspectRatio="none" fill="none" xmlns="http://www.w3.org/2000/svg">
<g clip-path="url(#clip0_194_1845)">
<path opacity="0.25" d="M1980 120V73.7023C1901.15 51.4987 1809.08 41.527 1719.3 45.6977C1603.21 51.0686 1494.36 79.0132 1378.08 83.2039C1256.24 87.5646 1134.64 66.3211 1018.05 47.9381C903.755 29.9351 789.855 23.054 672.54 34.8559C612.892 40.8569 557.288 52.6989 500.198 64.2008C347.342 94.9959 143.55 134.292 2.86102e-05 67.5213V120L1980 120Z" fill="white"/>
<path opacity="0.6" d="M1980 120V104.188C1958.55 83.0764 1934.39 63.1344 1901.31 47.9429C1815.97 8.71908 1707.75 8.98911 1609.44 28.411C1558.05 38.562 1510.29 54.4836 1461.49 68.2149C1393.97 87.2168 1321.68 114.219 1245.62 117.89C1185.79 120.74 1128.63 108.469 1082.93 86.3267C1030.51 60.9342 980.1 24.3206 911.939 13.3195C845.213 2.52848 777.711 20.0102 715.374 37.6019C653.037 55.1936 591.36 76.6057 522.456 80.6561C423.902 86.5067 335.544 57.7739 243.771 41.8123C193.941 33.1515 146.421 35.6417 100.073 49.3131C63.0631 60.2041 20.8725 76.2457 2.86102e-05 98.5579V120L1980 120Z" fill="white"/>
<path d="M1980 120V114.364C1732.62 60.9409 1461.75 48.6086 1194.88 77.3874C1123.93 85.035 1055.9 97.5275 984.324 103.874C886.974 112.513 798.732 91.6216 711.15 68.4384C613.916 42.7027 518.1 24.6646 410.52 29.9099C267.746 36.9169 125.961 75.6656 2.86102e-05 114.805V120L1980 120Z" fill="white"/>
</g>
<defs>
<clipPath id="clip0_194_1845">
<rect width="1920" height="120" fill="white" transform="matrix(-1 0 0 -1 1920 120)"/>
</clipPath>
</defs>
</svg>
