<?xml version="1.0" encoding="UTF-8" standalone="no"?>
<!-- Generator: Adobe Illustrator 19.2.1, SVG Export Plug-In . SVG Version: 6.00 Build 0)  -->

<svg
   version="1.1"
   id="layer"
   x="0px"
   y="0px"
   viewBox="0 0 600.09998 191"
   xml:space="preserve"
   sodipodi:docname="swimengland.svg"
   width="600.09998"
   height="191"
   inkscape:version="1.4.2 (f4327f4, 2025-05-13)"
   xmlns:inkscape="http://www.inkscape.org/namespaces/inkscape"
   xmlns:sodipodi="http://sodipodi.sourceforge.net/DTD/sodipodi-0.dtd"
   xmlns="http://www.w3.org/2000/svg"
   xmlns:svg="http://www.w3.org/2000/svg"><defs
   id="defs3" /><sodipodi:namedview
   id="namedview3"
   pagecolor="#ffffff"
   bordercolor="#000000"
   borderopacity="0.25"
   inkscape:showpageshadow="2"
   inkscape:pageopacity="0.0"
   inkscape:pagecheckerboard="0"
   inkscape:deskcolor="#d1d1d1"
   inkscape:zoom="1.2377301"
   inkscape:cx="304.9938"
   inkscape:cy="101.39529"
   inkscape:window-width="1920"
   inkscape:window-height="1009"
   inkscape:window-x="-8"
   inkscape:window-y="-8"
   inkscape:window-maximized="1"
   inkscape:current-layer="layer" />
<style
   type="text/css"
   id="style1">
	.st0{fill:#0085B0;}
	.st1{fill:#E42313;}
	.st2{fill:#92D2F4;}
</style>
<path
   class="st0"
   d="m 245,76.1 c 0.5,-5.3 3.3,-9.8 7,-12.1 4.3,3.5 11.1,6.2 18.7,6.2 7.3,0 10.2,-2.3 10.2,-5.9 0,-3.4 -1.6,-5.3 -13.1,-8.2 -11,-2.6 -20.6,-6.9 -20.7,-20 0,-12.5 10,-20.5 25,-20.5 11.3,0 18.8,3.7 22.7,6.7 -0.3,4.7 -2.8,9.9 -7,12.3 -3.8,-2.6 -9.5,-5.1 -16.7,-5.1 -6,0 -9.2,2.2 -9.2,5.3 0,3.3 1.4,4.7 13.1,7.5 12.2,3.1 20.5,8.2 20.7,19.9 0.3,14.1 -9.6,22 -25.2,22 -13.2,-0.1 -21.3,-4.5 -25.5,-8.1 m 128.2,-41 c -4.2,18.6 -8.8,33 -17.2,47.4 -2.4,0.5 -5.1,0.7 -7.5,0.7 -2.3,0 -4.8,-0.2 -7.2,-0.7 -2.5,-4.3 -4.9,-9.2 -6.9,-14.5 -1.4,5.4 -3.2,10.3 -5.3,14.5 -2.4,0.5 -5.3,0.7 -7.6,0.7 -2.4,0 -5,-0.2 -7.3,-0.7 -9.7,-14.9 -13.8,-29.1 -17.6,-47.4 1.9,-0.5 6.5,-1.1 10.5,-1.1 1.8,0 4.5,0.2 6.2,0.3 2.3,14.7 6.1,28.9 8.6,35.2 0.2,0.6 0.4,1.3 0.5,2.1 0.1,-0.8 0.2,-1.5 0.5,-2.2 1.8,-4.5 4.1,-11.8 5.5,-19.4 -1.3,-4.8 -2.4,-9.9 -3.5,-14.8 1.8,-0.5 6.4,-1.1 10.4,-1.1 1.7,0 3.8,0.2 5.3,0.3 2.2,14.7 5.5,28.5 7.7,35.2 0.2,0.8 0.4,1.6 0.5,2.5 0.1,-0.9 0.3,-1.7 0.6,-2.5 2.6,-7.3 5.6,-20.3 7.9,-35.2 1.8,-0.1 4.3,-0.3 6.4,-0.3 3.5,-0.1 7,0.4 9.5,1 m 4.3,-16.2 c 0,-5 4.1,-9 9.2,-9 5,0 9.1,4.1 9.1,9 0,5 -4.2,9.1 -9.1,9.1 -5,0 -9.2,-4.2 -9.2,-9.1 M 379,82.5 V 34.2 c 2.4,-0.4 5,-0.6 7.5,-0.6 2.4,0 5,0.2 7.6,0.6 v 48.3 c -2.4,0.4 -5,0.6 -7.6,0.6 -2.4,0 -4.9,-0.2 -7.5,-0.6 M 481.2,52.1 v 30.4 c -2.5,0.4 -5.1,0.6 -7.6,0.6 -2.5,0 -5.1,-0.2 -7.6,-0.6 v -27 c 0,-6 -2.8,-9.1 -8.5,-9.1 -3.9,0 -6.3,1.4 -8.1,2.7 0.1,1 0.2,2 0.2,3 v 30.4 c -2.5,0.4 -5.1,0.6 -7.6,0.6 -2.5,0 -5.1,-0.2 -7.5,-0.6 v -27 c 0,-6 -2.9,-9.1 -8.6,-9.1 -3.4,0 -6,0.9 -7.8,2 v 34.1 c -2.5,0.4 -5.1,0.6 -7.6,0.6 -2.5,0 -5,-0.2 -7.5,-0.6 V 40.6 c 3.5,-3 12.5,-8 24.4,-8 6.8,0 12.1,1.7 15.8,4.6 3.9,-2.4 9.5,-4.6 16,-4.6 14.7,0 22,8.2 22,19.5"
   id="path1" />
<path
   class="st1"
   d="m 294.1,155.5 c 0,2.2 -0.2,4.6 -0.7,6.8 H 249.3 V 97.1 h 43.1 c 0.6,2.1 0.8,4.6 0.8,6.8 0,2.2 -0.2,4.5 -0.8,6.7 h -28 v 11.8 h 24.9 c 0.5,2.2 0.7,4.5 0.7,6.7 0,2.2 -0.2,4.4 -0.7,6.6 h -24.9 v 13.1 h 29 c 0.5,2.2 0.7,4.5 0.7,6.7 M 349,133.1 v 29.3 c -2.5,0.4 -5.1,0.6 -7.6,0.6 -2.5,0 -5.1,-0.2 -7.6,-0.6 v -26.8 c 0,-6.9 -3.8,-9.3 -9.2,-9.3 -3.6,0 -6.4,1 -8.1,2 v 34.1 c -2.5,0.4 -5.1,0.6 -7.6,0.6 -2.5,0 -5,-0.2 -7.5,-0.6 v -41.9 c 3.8,-3.4 12.4,-8 24.4,-8 16,-0.1 23.2,8.7 23.2,20.6 m 55.5,-13.7 v 39.9 c 0,16 -10.9,23.5 -25.3,23.5 -11.6,0 -19.4,-4.2 -23.8,-9 0.6,-3.9 3.6,-7.9 8.2,-9.6 3.6,4.1 8,6.6 14.7,6.6 7.8,0 11,-3.6 11,-8.7 v -1.7 c -2.3,0.7 -5,1.1 -8.2,1.1 -14.2,0 -25.9,-8.1 -25.9,-23.6 0,-16.3 12.3,-25.5 27,-25.5 9.3,0 17.2,3.1 22.3,7 m -15.1,28.7 v -21.5 c -2.1,-0.8 -4.3,-1.3 -6.8,-1.3 -6.7,0 -12.1,4.5 -12.1,12.1 0,7.4 5.1,12 12.1,12 2.7,-0.1 4.7,-0.5 6.8,-1.3 m 24.3,14.2 V 95.7 c 2.3,-0.4 4.9,-0.6 7.4,-0.6 2.5,0 5.2,0.2 7.8,0.6 v 66.6 c -2.3,0.4 -5,0.6 -7.5,0.6 -2.5,0 -5.1,-0.2 -7.7,-0.6 m 76.4,-9.8 c -0.4,5.2 -2.6,9.2 -5.8,11.7 -4.3,-0.6 -8,-2.4 -10.3,-5.4 -4.5,3.8 -9.1,5.3 -15.1,5.3 -13.6,0 -23.1,-8.8 -23.1,-24.5 0,-15.5 11.2,-26.8 27.7,-26.8 9.2,0 16.5,2.1 21.6,5.2 l -0.1,26.8 c 0.1,4.5 1.4,6.1 5.1,7.7 m -28.3,-1.3 c 2.8,0 5.9,-0.9 8.3,-3.2 v -21.1 c -2.2,-0.7 -4.5,-1.1 -6.7,-1.1 -7.1,0 -12.3,5 -12.3,13.3 0,7.8 4.7,12.1 10.7,12.1 m 82.1,-18.1 v 29.3 c -2.5,0.4 -5.1,0.6 -7.6,0.6 -2.5,0 -5.1,-0.2 -7.6,-0.6 v -26.8 c 0,-6.9 -3.8,-9.3 -9.1,-9.3 -3.6,0 -6.4,1 -8.1,2 v 34.1 c -2.5,0.4 -5.1,0.6 -7.6,0.6 -2.5,0 -5,-0.2 -7.5,-0.6 v -41.9 c 3.8,-3.4 12.4,-8 24.4,-8 15.9,-0.1 23.1,8.7 23.1,20.6 m 56.2,-37.5 v 63.7 c -5.1,2.5 -13.4,4.8 -21.8,4.8 -17.6,0 -28.2,-9.1 -28.2,-25.5 0,-15.9 12,-25.8 26.9,-25.8 3.1,0 5.6,0.3 7.8,0.9 V 95.6 c 2.5,-0.4 5.1,-0.6 7.5,-0.6 2.7,-0.1 5.3,0.1 7.8,0.6 M 585,150.2 v -23.1 c -2.2,-1.1 -4.6,-1.4 -6.9,-1.4 -7.2,0 -12.6,4.9 -12.6,12.7 0,7.7 5.1,12.8 12.4,12.8 2.4,0 4.7,-0.4 7.1,-1"
   id="path2" />
<path
   class="st2"
   d="m 37.4,64.1 c -0.1,0 -0.3,0 -0.4,0 -1.2,0 -2.1,-0.9 -2.1,-2.1 V 47.1 c 0,-1 0.7,-1.8 1.6,-2.1 l 48.1,-9.7 c 1,-0.2 2,-0.3 3,-0.3 8.8,0 15.9,7.1 15.9,15.8 V 69 c 0,8.8 7.1,15.9 15.8,15.9 1.1,0 2.2,-0.1 3.2,-0.3 l 78,-15.6 c 1.3,-5.8 1.7,-11.7 1.7,-17.5 0,-5.7 -0.4,-11.8 -1.7,-17.5 l -78,15.7 c -1,0.2 -2.1,0.3 -3.2,0.3 -8.8,0 -15.8,-7.1 -15.8,-15.9 V 15.9 C 103.5,7.1 96.4,0 87.6,0 c -1,0 -2.1,0.1 -3,0.3 L 12.9,14.9 12.3,15 C 5.3,16.6 0,22.9 0,30.4 V 87.2 C 0,96 7.1,103 15.8,103 c 0.8,0 1.5,-0.1 2.2,-0.2 l 0.9,-0.1 65.5,-13.2 c 1,-0.2 2,-0.3 3,-0.3 8.8,0 15.9,7.1 15.9,15.8 v 17 c 0,-8.8 -7.1,-15.9 -15.9,-15.9 -1,0 -2.1,0.1 -3,0.3 L 1.9,123 c -1.4,6 -1.8,11.9 -1.8,17.9 0,5.6 0.4,11.5 1.6,17.1 l 82.7,-16.6 c 1,-0.2 2,-0.3 3,-0.3 8.8,0 15.9,7.1 15.9,15.8 v 18.2 c 0,8.8 7.1,15.9 15.8,15.9 1.1,0 2.2,-0.1 3.2,-0.3 l 78,-15.6 c 1.3,-5.8 1.7,-11.7 1.7,-17.5 0,-5.7 -0.4,-11.8 -1.7,-17.5 l -78,15.7 c -1,0.2 -2.1,0.3 -3.2,0.3 -8.8,0 -15.8,-7.1 -15.8,-15.8 v -17 c 0,8.8 7.1,15.9 15.8,15.9 1.1,0 2.2,-0.1 3.2,-0.3 l 61.9,-12.4 c 1.3,-5.8 1.7,-11.5 1.7,-17.3 0,-5.8 -0.5,-12 -1.7,-17.7 l -61.9,12.4 c -1,0.2 -2.1,0.3 -3.2,0.3 -8.8,0 -15.8,-7.1 -15.8,-15.9 V 70.1 c 0,-8.8 -7.1,-15.9 -15.9,-15.9 -1,0 -2.1,0.1 -3,0.3 z"
   id="path3" />
</svg>
